<svg width="56" height="56" viewBox="0 0 56 56" fill="none" xmlns="http://www.w3.org/2000/svg">
<g filter="url(#filter0_d_1_791)">
<circle cx="28" cy="24" r="24" fill="white"/>
<path fill-rule="evenodd" clip-rule="evenodd" d="M20.535 9.5C16.6497 9.5 13.5 12.6497 13.5 16.535V31.6049C13.5 35.4902 16.6497 38.6398 20.535 38.6398H35.6049C39.4902 38.6398 42.6398 35.4902 42.6398 31.6049V16.535C42.6398 12.6497 39.4902 9.5 35.6049 9.5H20.535ZM12.5 16.535C12.5 12.0974 16.0974 8.5 20.535 8.5H35.6049C40.0425 8.5 43.6398 12.0974 43.6398 16.535V31.6049C43.6398 36.0425 40.0425 39.6398 35.6049 39.6398H20.535C16.0974 39.6398 12.5 36.0425 12.5 31.6049V16.535ZM28.9462 18.5363C27.796 18.3657 26.6214 18.5622 25.5893 19.0977C24.5573 19.6332 23.7203 20.4805 23.1976 21.5191C22.6748 22.5577 22.4929 23.7347 22.6776 24.8827C22.8623 26.0306 23.4043 27.0911 24.2265 27.9133C25.0487 28.7355 26.1091 29.2775 27.2571 29.4622C28.4051 29.6469 29.5821 29.465 30.6207 28.9422C31.6593 28.4195 32.5066 27.5825 33.0421 26.5504C33.5776 25.5184 33.7741 24.3437 33.6035 23.1936C33.4295 22.0204 32.8829 20.9342 32.0442 20.0956C31.2056 19.2569 30.1194 18.7102 28.9462 18.5363ZM25.1288 18.2101C26.3475 17.5777 27.7347 17.3457 29.0929 17.5471C30.4783 17.7525 31.7609 18.3981 32.7513 19.3885C33.7417 20.3788 34.3873 21.6615 34.5927 23.0469C34.7941 24.4051 34.5621 25.7923 33.9297 27.011C33.2973 28.2298 32.2967 29.2181 31.0702 29.8354C29.8438 30.4528 28.4539 30.6676 27.0982 30.4495C25.7426 30.2314 24.4903 29.5913 23.5194 28.6204C22.5485 27.6495 21.9084 26.3972 21.6903 25.0415C21.4721 23.6859 21.687 22.296 22.3043 21.0695C22.9217 19.8431 23.91 18.8425 25.1288 18.2101ZM36.3584 15.2815C36.0822 15.2815 35.8584 15.5053 35.8584 15.7815C35.8584 16.0576 36.0822 16.2815 36.3584 16.2815H36.3756C36.6518 16.2815 36.8756 16.0576 36.8756 15.7815C36.8756 15.5053 36.6518 15.2815 36.3756 15.2815H36.3584Z" fill="#23B123"/>
</g>
<defs>
<filter id="filter0_d_1_791" x="0" y="0" width="56" height="56" filterUnits="userSpaceOnUse" color-interpolation-filters="sRGB">
<feFlood flood-opacity="0" result="BackgroundImageFix"/>
<feColorMatrix in="SourceAlpha" type="matrix" values="0 0 0 0 0 0 0 0 0 0 0 0 0 0 0 0 0 0 127 0" result="hardAlpha"/>
<feOffset dy="4"/>
<feGaussianBlur stdDeviation="2"/>
<feComposite in2="hardAlpha" operator="out"/>
<feColorMatrix type="matrix" values="0 0 0 0 0 0 0 0 0 0 0 0 0 0 0 0 0 0 0.25 0"/>
<feBlend mode="normal" in2="BackgroundImageFix" result="effect1_dropShadow_1_791"/>
<feBlend mode="normal" in="SourceGraphic" in2="effect1_dropShadow_1_791" result="shape"/>
</filter>
</defs>
</svg>
